<?xml version="1.0" standalone="no"?><!DOCTYPE svg PUBLIC "-//W3C//DTD SVG 1.1//EN" "http://www.w3.org/Graphics/SVG/1.1/DTD/svg11.dtd"><svg class="icon" height="512" viewBox="0 0 1024 1024" version="1.1" xmlns="http://www.w3.org/2000/svg"><path d="M791.04 1018.88 235.52 1018.88c-1.28 0 1.28 0 0 0-19.2-2.56-188.16-24.32-175.36-230.4 0-1.28 0-1.28 0-2.56-12.8-253.44 144.64-396.8 239.36-464.64 10.24-6.4 11.52-20.48 5.12-30.72-1.28-1.28-2.56-3.84-5.12-5.12-38.4-28.16-78.08-66.56-78.08-113.92 0-58.88 21.76-88.32 43.52-102.4 35.84-21.76 78.08-26.88 117.76-12.8 8.96 2.56 17.92 0 24.32-6.4 28.16-33.28 67.84-46.08 112.64-46.08 2.56 0 3.84 0 6.4 1.28 25.6 5.12 49.92 17.92 69.12 37.12 6.4 7.68 16.64 10.24 25.6 6.4 37.12-15.36 69.12-20.48 101.12-7.68 43.52 14.08 72.96 58.88 88.32 94.72 12.8 38.4-37.12 93.44-88.32 142.08-8.96 7.68-10.24 21.76-1.28 30.72 1.28 1.28 2.56 2.56 3.84 3.84 96 62.72 261.12 213.76 248.32 474.88l0 21.76C971.52 962.56 857.6 1012.48 791.04 1018.88L791.04 1018.88 791.04 1018.88zM235.52 979.2l555.52 0c14.08 0 136.96-30.72 136.96-176.64l0-14.08 0 0c14.08-314.88-253.44-448-277.76-453.12-1.28 0-2.56-1.28-3.84-1.28l-15.36-6.4c-11.52-5.12-16.64-17.92-11.52-28.16 1.28-3.84 3.84-6.4 6.4-8.96l7.68-6.4c55.04-42.24 103.68-94.72 120.32-119.04 3.84-6.4 3.84-14.08 1.28-20.48-8.96-16.64-23.04-43.52-47.36-49.92-29.44-7.68-58.88 0-94.72 21.76 0 0-1.28 0-1.28 1.28l-3.84 2.56c-11.52 5.12-24.32 1.28-29.44-10.24C576 104.96 576 103.68 576 102.4l0 0c0-1.28-1.28-3.84-2.56-5.12-12.8-20.48-33.28-33.28-57.6-34.56-21.76 0-51.2 0-79.36 42.24C435.2 106.24 435.2 107.52 433.92 108.8l-3.84 3.84c-6.4 6.4-14.08 7.68-23.04 5.12l-8.96-2.56c-37.12-14.08-80.64-14.08-102.4 0-14.08 7.68-21.76 29.44-21.76 51.2 0 43.52 85.76 93.44 116.48 108.8 1.28 0 1.28 1.28 2.56 1.28l10.24 3.84c11.52 3.84 16.64 16.64 12.8 28.16-2.56 5.12-6.4 8.96-10.24 11.52l-14.08 6.4c-14.08 7.68-294.4 131.84-279.04 453.12l0 0C103.68 948.48 220.16 979.2 235.52 979.2L235.52 979.2 235.52 979.2zM648.96 753.92c11.52 0 21.76 10.24 20.48 21.76 0 11.52-8.96 20.48-20.48 20.48l-103.68 0 0 75.52c0 11.52-8.96 20.48-20.48 20.48 0 0 0 0-1.28 0-11.52 0-20.48-8.96-20.48-20.48l0-75.52-103.68 0c-11.52 0-20.48-10.24-20.48-21.76 0-11.52 8.96-20.48 20.48-20.48 0 0 0 0 0 0l103.68 0 0-65.28-103.68 0c-11.52 0-20.48-10.24-20.48-21.76 0-11.52 8.96-20.48 20.48-20.48L486.4 646.4l-90.88-174.08c-5.12-8.96-2.56-21.76 7.68-26.88 1.28 0 1.28-1.28 2.56-1.28 10.24-5.12 21.76-1.28 28.16 8.96L524.8 627.2 614.4 451.84c5.12-10.24 17.92-14.08 26.88-8.96 0 0 1.28 0 1.28 1.28 10.24 3.84 14.08 15.36 10.24 25.6 0 1.28 0 1.28-1.28 1.28l0 0-90.88 175.36 85.76 0c11.52 0 21.76 10.24 20.48 21.76 0 0 0 0 0 0 0 11.52-8.96 20.48-20.48 20.48 0 0 0 0 0 0l-103.68 0 0 65.28L648.96 753.92 648.96 753.92z" /></svg>