<?xml version="1.0" standalone="no"?><!DOCTYPE svg PUBLIC "-//W3C//DTD SVG 1.1//EN" "http://www.w3.org/Graphics/SVG/1.1/DTD/svg11.dtd"><svg class="icon" height="512" viewBox="0 0 1024 1024" version="1.1" xmlns="http://www.w3.org/2000/svg"><path d="M511.98465 983.01761s-401.027559-178.12691-401.027559-397.958664V266.711458c0 0.381693 1.228991 0.590448 3.526313 0.590447 22.868847 0 152.066371-20.292162 237.092883-80.170924C457.727932 112.330368 511.98465 27.972075 511.98465 27.972075s59.675124 89.759303 160.412457 159.158906c100.946087 69.572542 242.949264 78.969563 240.617149 79.580477v318.347488c0 219.831754-401.029606 397.958664-401.029606 397.958664z m350.899882-672.706145c-86.23299-14.652721-162.880671-43.163055-218.884172-81.751932-57.294914-39.479153-102.119819-84.808548-131.894959-119.152751-29.031197 33.358759-73.008804 77.486792-131.710765 118.855992-68.864414 48.493457-161.983231 73.591065-219.306798 83.742263V585.057923c0 143.92597 236.70812 287.634999 350.896812 342.578356C626.157993 872.698039 862.884532 728.983893 862.884532 585.057923V310.311465zM489.704205 658.756435c-10.128685 10.372232-27.030633 10.372232-37.548175 0l-104.572684-77.961606c-10.324136-10.007935-10.324136-26.671453 0-36.845163 10.324136-9.992585 27.030633-9.992585 37.739533 0l85.614913 59.459207 147.411351-195.22738c10.513448-10.377348 27.224038-10.377348 37.563524 0 10.327206 9.987468 10.327206 26.6428 0 36.821627L489.704205 658.756435z" /></svg>